REM DIRINDEX 1\2,1\3
REM DIRNAME folder01,folder02,folder03
TITLE ""
FILE "1101-1120.mp3" MP3
  TRACK 01 AUDIO
    TITLE "0:"
    INDEX 01 00:00:00
  TRACK 02 AUDIO
    TITLE "2:cjc039_1201"
    INDEX 01 00:00:21
  TRACK 03 AUDIO
    TITLE "0:"
    INDEX 01 00:01:36
  TRACK 04 AUDIO
    TITLE "3:cjc039_1202"
    INDEX 01 00:02:16
  TRACK 05 AUDIO
    TITLE "0:"
    INDEX 01 00:05:65
  TRACK 06 AUDIO
    TITLE "2:cjc039_1203"
    INDEX 01 00:07:39
  TRACK 07 AUDIO
    TITLE "0:"
    INDEX 01 00:08:72
  TRACK 08 AUDIO
    TITLE "3:cjc039_1204"
    INDEX 01 00:09:47
  TRACK 09 AUDIO
    TITLE "0:"
    INDEX 01 00:13:28
  TRACK 10 AUDIO
    TITLE "2:cjc039_1205"
    INDEX 01 00:15:09
  TRACK 11 AUDIO
    TITLE "0:"
    INDEX 01 00:16:08
  TRACK 12 AUDIO
    TITLE "3:cjc039_1206"
    INDEX 01 00:16:61
  TRACK 13 AUDIO
    TITLE "0:"
    INDEX 01 00:20:18
  TRACK 14 AUDIO
    TITLE "2:cjc039_1207"
    INDEX 01 00:21:64
  TRACK 15 AUDIO
    TITLE "0:"
    INDEX 01 00:23:14
  TRACK 16 AUDIO
    TITLE "3:cjc039_1208"
    INDEX 01 00:23:67
  TRACK 17 AUDIO
    TITLE "0:"
    INDEX 01 00:28:29
  TRACK 18 AUDIO
    TITLE "2:cjc039_1209"
    INDEX 01 00:29:74
  TRACK 19 AUDIO
    TITLE "0:"
    INDEX 01 00:31:26
  TRACK 20 AUDIO
    TITLE "3:cjc039_1210"
    INDEX 01 00:32:01
  TRACK 21 AUDIO
    TITLE "0:"
    INDEX 01 00:35:35
  TRACK 22 AUDIO
    TITLE "2:cjc039_1211"
    INDEX 01 00:37:08
  TRACK 23 AUDIO
    TITLE "0:"
    INDEX 01 00:38:41
  TRACK 24 AUDIO
    TITLE "3:cjc039_1212"
    INDEX 01 00:39:21
  TRACK 25 AUDIO
    TITLE "0:"
    INDEX 01 00:43:60
  TRACK 26 AUDIO
    TITLE "2:cjc039_1213"
    INDEX 01 00:45:35
  TRACK 27 AUDIO
    TITLE "0:"
    INDEX 01 00:46:56
  TRACK 28 AUDIO
    TITLE "3:cjc039_1214"
    INDEX 01 00:47:30
  TRACK 29 AUDIO
    TITLE "0:"
    INDEX 01 00:51:03
  TRACK 30 AUDIO
    TITLE "2:cjc039_1215"
    INDEX 01 00:52:59
  TRACK 31 AUDIO
    TITLE "0:"
    INDEX 01 00:54:05
  TRACK 32 AUDIO
    TITLE "3:cjc039_1216"
    INDEX 01 00:54:56
  TRACK 33 AUDIO
    TITLE "0:"
    INDEX 01 00:59:02
  TRACK 34 AUDIO
    TITLE "2:cjc039_1217"
    INDEX 01 01:00:55
  TRACK 35 AUDIO
    TITLE "0:"
    INDEX 01 01:02:10
  TRACK 36 AUDIO
    TITLE "3:cjc039_1218"
    INDEX 01 01:02:57
  TRACK 37 AUDIO
    TITLE "0:"
    INDEX 01 01:06:57
  TRACK 38 AUDIO
    TITLE "2:cjc039_1219"
    INDEX 01 01:08:35
  TRACK 39 AUDIO
    TITLE "0:"
    INDEX 01 01:09:71
  TRACK 40 AUDIO
    TITLE "3:cjc039_1220"
    INDEX 01 01:10:49
  TRACK 41 AUDIO
    TITLE "0:"
    INDEX 01 01:15:27
  TRACK 42 AUDIO
    TITLE "2:cjc039_1221"
    INDEX 01 01:17:02
  TRACK 43 AUDIO
    TITLE "0:"
    INDEX 01 01:18:17
  TRACK 44 AUDIO
    TITLE "3:cjc039_1222"
    INDEX 01 01:18:72
  TRACK 45 AUDIO
    TITLE "0:"
    INDEX 01 01:22:27
  TRACK 46 AUDIO
    TITLE "2:cjc039_1223"
    INDEX 01 01:24:02
  TRACK 47 AUDIO
    TITLE "0:"
    INDEX 01 01:25:23
  TRACK 48 AUDIO
    TITLE "3:cjc039_1224"
    INDEX 01 01:26:01
  TRACK 49 AUDIO
    TITLE "0:"
    INDEX 01 01:29:45
  TRACK 50 AUDIO
    TITLE "2:cjc039_1225"
    INDEX 01 01:31:20
  TRACK 51 AUDIO
    TITLE "0:"
    INDEX 01 01:32:37
  TRACK 52 AUDIO
    TITLE "3:cjc039_1226"
    INDEX 01 01:33:13
  TRACK 53 AUDIO
    TITLE "0:"
    INDEX 01 01:37:26
  TRACK 54 AUDIO
    TITLE "2:cjc039_1227"
    INDEX 01 01:39:04
  TRACK 55 AUDIO
    TITLE "0:"
    INDEX 01 01:40:29
  TRACK 56 AUDIO
    TITLE "3:cjc039_1228"
    INDEX 01 01:41:07
  TRACK 57 AUDIO
    TITLE "0:"
    INDEX 01 01:44:62
  TRACK 58 AUDIO
    TITLE "2:cjc039_1229"
    INDEX 01 01:46:43
  TRACK 59 AUDIO
    TITLE "0:"
    INDEX 01 01:47:60
  TRACK 60 AUDIO
    TITLE "3:cjc039_1230"
    INDEX 01 01:48:36
  TRACK 61 AUDIO
    TITLE "0:"
    INDEX 01 01:52:36
  TRACK 62 AUDIO
    TITLE "2:cjc039_1231"
    INDEX 01 01:54:13
  TRACK 63 AUDIO
    TITLE "0:"
    INDEX 01 01:55:44
  TRACK 64 AUDIO
    TITLE "3:cjc039_1232"
    INDEX 01 01:56:24
  TRACK 65 AUDIO
    TITLE "0:"
    INDEX 01 02:01:11
  TRACK 66 AUDIO
    TITLE "2:cjc039_1233"
    INDEX 01 02:02:60
  TRACK 67 AUDIO
    TITLE "0:"
    INDEX 01 02:03:57
  TRACK 68 AUDIO
    TITLE "3:cjc039_1234"
    INDEX 01 02:04:37
  TRACK 69 AUDIO
    TITLE "0:"
    INDEX 01 02:07:67
  TRACK 70 AUDIO
    TITLE "2:cjc039_1235"
    INDEX 01 02:09:48
  TRACK 71 AUDIO
    TITLE "0:"
    INDEX 01 02:10:53
  TRACK 72 AUDIO
    TITLE "3:cjc039_1236"
    INDEX 01 02:11:33
  TRACK 73 AUDIO
    TITLE "0:"
    INDEX 01 02:14:61
  TRACK 74 AUDIO
    TITLE "2:cjc039_1237"
    INDEX 01 02:16:38
  TRACK 75 AUDIO
    TITLE "0:"
    INDEX 01 02:17:49
  TRACK 76 AUDIO
    TITLE "3:cjc039_1238"
    INDEX 01 02:18:31
  TRACK 77 AUDIO
    TITLE "0:"
    INDEX 01 02:22:45
  TRACK 78 AUDIO
    TITLE "2:cjc039_1239"
    INDEX 01 02:24:18
  TRACK 79 AUDIO
    TITLE "0:"
    INDEX 01 02:25:49
  TRACK 80 AUDIO
    TITLE "3:cjc039_1240"
    INDEX 01 02:26:23
  TRACK 81 AUDIO
    TITLE "0:"
    INDEX 01 02:30:11
